ISO-10303-21;
HEADER;
/* Generated by software containing ST-Developer
 * from STEP Tools, Inc. (www.steptools.com) 
 */

FILE_DESCRIPTION(
/* description */ (''),
/* implementation_level */ '2;1');

FILE_NAME(
/* name */ 'PEX Tube to PVC 0.75in.step',
/* time_stamp */ '2026-02-01T16:42:02-05:00',
/* author */ (''),
/* organization */ (''),
/* preprocessor_version */ 'ST-DEVELOPER v20.1',
/* originating_system */ 'Autodesk Translation Framework v14.24.0.0',
/* authorisation */ '');

FILE_SCHEMA (('AUTOMOTIVE_DESIGN { 1 0 10303 214 3 1 1 }'));
ENDSEC;

DATA;
#10=MECHANICAL_DESIGN_GEOMETRIC_PRESENTATION_REPRESENTATION('',(#13,#14),
#640);
#11=SHAPE_REPRESENTATION_RELATIONSHIP('SRR','None',#647,#12);
#12=ADVANCED_BREP_SHAPE_REPRESENTATION('',(#15,#16),#639);
#13=STYLED_ITEM('',(#656),#15);
#14=STYLED_ITEM('',(#656),#16);
#15=MANIFOLD_SOLID_BREP('Body1',#360);
#16=MANIFOLD_SOLID_BREP('Body2',#361);
#17=FACE_BOUND('',#116,.T.);
#18=FACE_BOUND('',#117,.T.);
#19=FACE_BOUND('',#129,.T.);
#20=FACE_BOUND('',#130,.T.);
#21=FACE_BOUND('',#134,.T.);
#22=FACE_BOUND('',#138,.T.);
#23=PLANE('',#383);
#24=PLANE('',#389);
#25=PLANE('',#392);
#26=PLANE('',#395);
#27=PLANE('',#398);
#28=PLANE('',#406);
#29=PLANE('',#412);
#30=PLANE('',#419);
#31=CYLINDRICAL_SURFACE('',#381,8.00000011920929);
#32=CYLINDRICAL_SURFACE('',#390,0.750000000000001);
#33=CYLINDRICAL_SURFACE('',#393,0.75);
#34=CYLINDRICAL_SURFACE('',#396,0.750000000000001);
#35=CYLINDRICAL_SURFACE('',#399,0.75);
#36=CYLINDRICAL_SURFACE('',#405,13.375);
#37=CYLINDRICAL_SURFACE('',#410,11.);
#38=CYLINDRICAL_SURFACE('',#418,13.375);
#39=LINE('',#546,#63);
#40=LINE('',#549,#64);
#41=LINE('',#556,#65);
#42=LINE('',#560,#66);
#43=LINE('',#564,#67);
#44=LINE('',#568,#68);
#45=LINE('',#573,#69);
#46=LINE('',#574,#70);
#47=LINE('',#575,#71);
#48=LINE('',#579,#72);
#49=LINE('',#582,#73);
#50=LINE('',#583,#74);
#51=LINE('',#587,#75);
#52=LINE('',#590,#76);
#53=LINE('',#591,#77);
#54=LINE('',#595,#78);
#55=LINE('',#598,#79);
#56=LINE('',#599,#80);
#57=LINE('',#606,#81);
#58=LINE('',#611,#82);
#59=LINE('',#617,#83);
#60=LINE('',#621,#84);
#61=LINE('',#630,#85);
#62=LINE('',#635,#86);
#63=VECTOR('',#434,8.50000011920929);
#64=VECTOR('',#437,8.00000011920929);
#65=VECTOR('',#444,10.);
#66=VECTOR('',#447,10.);
#67=VECTOR('',#450,10.);
#68=VECTOR('',#453,10.);
#69=VECTOR('',#458,10.);
#70=VECTOR('',#459,10.);
#71=VECTOR('',#460,10.);
#72=VECTOR('',#465,10.);
#73=VECTOR('',#468,10.);
#74=VECTOR('',#469,10.);
#75=VECTOR('',#474,10.);
#76=VECTOR('',#477,10.);
#77=VECTOR('',#478,10.);
#78=VECTOR('',#483,10.);
#79=VECTOR('',#486,10.);
#80=VECTOR('',#487,10.);
#81=VECTOR('',#496,12.875);
#82=VECTOR('',#503,13.375);
#83=VECTOR('',#510,11.5);
#84=VECTOR('',#515,11.);
#85=VECTOR('',#526,12.875);
#86=VECTOR('',#533,13.375);
#87=CONICAL_SURFACE('',#379,8.50000011920929,0.785398163397448);
#88=CONICAL_SURFACE('',#401,12.875,0.785398163397449);
#89=CONICAL_SURFACE('',#407,11.5,0.463647609000804);
#90=CONICAL_SURFACE('',#414,12.875,0.785398163397449);
#91=FACE_OUTER_BOUND('',#112,.T.);
#92=FACE_OUTER_BOUND('',#113,.T.);
#93=FACE_OUTER_BOUND('',#114,.T.);
#94=FACE_OUTER_BOUND('',#115,.T.);
#95=FACE_OUTER_BOUND('',#118,.T.);
#96=FACE_OUTER_BOUND('',#119,.T.);
#97=FACE_OUTER_BOUND('',#120,.T.);
#98=FACE_OUTER_BOUND('',#121,.T.);
#99=FACE_OUTER_BOUND('',#122,.T.);
#100=FACE_OUTER_BOUND('',#123,.T.);
#101=FACE_OUTER_BOUND('',#124,.T.);
#102=FACE_OUTER_BOUND('',#125,.T.);
#103=FACE_OUTER_BOUND('',#126,.T.);
#104=FACE_OUTER_BOUND('',#127,.T.);
#105=FACE_OUTER_BOUND('',#128,.T.);
#106=FACE_OUTER_BOUND('',#131,.T.);
#107=FACE_OUTER_BOUND('',#132,.T.);
#108=FACE_OUTER_BOUND('',#133,.T.);
#109=FACE_OUTER_BOUND('',#135,.T.);
#110=FACE_OUTER_BOUND('',#136,.T.);
#111=FACE_OUTER_BOUND('',#137,.T.);
#112=EDGE_LOOP('',(#242,#243,#244,#245));
#113=EDGE_LOOP('',(#246,#247,#248,#249));
#114=EDGE_LOOP('',(#250,#251,#252,#253));
#115=EDGE_LOOP('',(#254));
#116=EDGE_LOOP('',(#255,#256,#257,#258,#259,#260,#261,#262));
#117=EDGE_LOOP('',(#263));
#118=EDGE_LOOP('',(#264,#265,#266,#267));
#119=EDGE_LOOP('',(#268,#269,#270,#271));
#120=EDGE_LOOP('',(#272,#273,#274,#275));
#121=EDGE_LOOP('',(#276,#277,#278,#279));
#122=EDGE_LOOP('',(#280,#281,#282,#283));
#123=EDGE_LOOP('',(#284,#285,#286,#287));
#124=EDGE_LOOP('',(#288,#289,#290,#291));
#125=EDGE_LOOP('',(#292,#293,#294,#295));
#126=EDGE_LOOP('',(#296,#297,#298,#299,#300));
#127=EDGE_LOOP('',(#301,#302,#303,#304,#305));
#128=EDGE_LOOP('',(#306));
#129=EDGE_LOOP('',(#307));
#130=EDGE_LOOP('',(#308,#309,#310,#311,#312,#313,#314,#315));
#131=EDGE_LOOP('',(#316,#317,#318,#319));
#132=EDGE_LOOP('',(#320,#321,#322,#323));
#133=EDGE_LOOP('',(#324));
#134=EDGE_LOOP('',(#325));
#135=EDGE_LOOP('',(#326,#327,#328,#329,#330));
#136=EDGE_LOOP('',(#331,#332,#333,#334,#335));
#137=EDGE_LOOP('',(#336));
#138=EDGE_LOOP('',(#337));
#139=CIRCLE('',#376,8.43933994742947);
#140=CIRCLE('',#377,1.5);
#141=CIRCLE('',#378,8.00000011920929);
#142=CIRCLE('',#380,9.00000011920929);
#143=CIRCLE('',#382,8.00000011920929);
#144=CIRCLE('',#384,13.375);
#145=CIRCLE('',#385,0.75);
#146=CIRCLE('',#386,0.750000000000001);
#147=CIRCLE('',#387,0.75);
#148=CIRCLE('',#388,0.750000000000001);
#149=CIRCLE('',#391,0.750000000000001);
#150=CIRCLE('',#394,0.75);
#151=CIRCLE('',#397,0.750000000000001);
#152=CIRCLE('',#400,0.75);
#153=CIRCLE('',#402,12.375);
#154=CIRCLE('',#403,13.375);
#155=CIRCLE('',#404,13.375);
#156=CIRCLE('',#408,12.);
#157=CIRCLE('',#409,11.);
#158=CIRCLE('',#411,11.);
#159=CIRCLE('',#413,13.375);
#160=CIRCLE('',#415,12.375);
#161=CIRCLE('',#416,13.375);
#162=CIRCLE('',#417,13.375);
#163=VERTEX_POINT('',#538);
#164=VERTEX_POINT('',#540);
#165=VERTEX_POINT('',#544);
#166=VERTEX_POINT('',#548);
#167=VERTEX_POINT('',#552);
#168=VERTEX_POINT('',#554);
#169=VERTEX_POINT('',#555);
#170=VERTEX_POINT('',#557);
#171=VERTEX_POINT('',#559);
#172=VERTEX_POINT('',#561);
#173=VERTEX_POINT('',#563);
#174=VERTEX_POINT('',#565);
#175=VERTEX_POINT('',#567);
#176=VERTEX_POINT('',#571);
#177=VERTEX_POINT('',#572);
#178=VERTEX_POINT('',#577);
#179=VERTEX_POINT('',#581);
#180=VERTEX_POINT('',#585);
#181=VERTEX_POINT('',#589);
#182=VERTEX_POINT('',#593);
#183=VERTEX_POINT('',#597);
#184=VERTEX_POINT('',#603);
#185=VERTEX_POINT('',#605);
#186=VERTEX_POINT('',#607);
#187=VERTEX_POINT('',#614);
#188=VERTEX_POINT('',#616);
#189=VERTEX_POINT('',#620);
#190=VERTEX_POINT('',#624);
#191=VERTEX_POINT('',#627);
#192=VERTEX_POINT('',#629);
#193=VERTEX_POINT('',#631);
#194=EDGE_CURVE('',#163,#163,#139,.T.);
#195=EDGE_CURVE('',#163,#164,#140,.T.);
#196=EDGE_CURVE('',#164,#164,#141,.T.);
#197=EDGE_CURVE('',#165,#165,#142,.T.);
#198=EDGE_CURVE('',#165,#163,#39,.T.);
#199=EDGE_CURVE('',#164,#166,#40,.T.);
#200=EDGE_CURVE('',#166,#166,#143,.T.);
#201=EDGE_CURVE('',#167,#167,#144,.T.);
#202=EDGE_CURVE('',#168,#169,#41,.T.);
#203=EDGE_CURVE('',#169,#170,#145,.T.);
#204=EDGE_CURVE('',#170,#171,#42,.T.);
#205=EDGE_CURVE('',#171,#172,#146,.T.);
#206=EDGE_CURVE('',#172,#173,#43,.T.);
#207=EDGE_CURVE('',#173,#174,#147,.T.);
#208=EDGE_CURVE('',#174,#175,#44,.T.);
#209=EDGE_CURVE('',#175,#168,#148,.T.);
#210=EDGE_CURVE('',#176,#177,#45,.T.);
#211=EDGE_CURVE('',#173,#176,#46,.T.);
#212=EDGE_CURVE('',#172,#177,#47,.T.);
#213=EDGE_CURVE('',#177,#178,#149,.T.);
#214=EDGE_CURVE('',#171,#178,#48,.T.);
#215=EDGE_CURVE('',#178,#179,#49,.T.);
#216=EDGE_CURVE('',#170,#179,#50,.T.);
#217=EDGE_CURVE('',#179,#180,#150,.T.);
#218=EDGE_CURVE('',#169,#180,#51,.T.);
#219=EDGE_CURVE('',#180,#181,#52,.T.);
#220=EDGE_CURVE('',#168,#181,#53,.T.);
#221=EDGE_CURVE('',#181,#182,#151,.T.);
#222=EDGE_CURVE('',#175,#182,#54,.T.);
#223=EDGE_CURVE('',#182,#183,#55,.T.);
#224=EDGE_CURVE('',#174,#183,#56,.T.);
#225=EDGE_CURVE('',#183,#176,#152,.T.);
#226=EDGE_CURVE('',#184,#184,#153,.T.);
#227=EDGE_CURVE('',#184,#185,#57,.T.);
#228=EDGE_CURVE('',#185,#186,#154,.T.);
#229=EDGE_CURVE('',#186,#185,#155,.T.);
#230=EDGE_CURVE('',#167,#186,#58,.T.);
#231=EDGE_CURVE('',#187,#187,#156,.T.);
#232=EDGE_CURVE('',#187,#188,#59,.T.);
#233=EDGE_CURVE('',#188,#188,#157,.T.);
#234=EDGE_CURVE('',#188,#189,#60,.T.);
#235=EDGE_CURVE('',#189,#189,#158,.T.);
#236=EDGE_CURVE('',#190,#190,#159,.T.);
#237=EDGE_CURVE('',#191,#191,#160,.T.);
#238=EDGE_CURVE('',#191,#192,#61,.T.);
#239=EDGE_CURVE('',#192,#193,#161,.T.);
#240=EDGE_CURVE('',#193,#192,#162,.T.);
#241=EDGE_CURVE('',#190,#193,#62,.T.);
#242=ORIENTED_EDGE('',*,*,#194,.T.);
#243=ORIENTED_EDGE('',*,*,#195,.T.);
#244=ORIENTED_EDGE('',*,*,#196,.T.);
#245=ORIENTED_EDGE('',*,*,#195,.F.);
#246=ORIENTED_EDGE('',*,*,#197,.T.);
#247=ORIENTED_EDGE('',*,*,#198,.T.);
#248=ORIENTED_EDGE('',*,*,#194,.F.);
#249=ORIENTED_EDGE('',*,*,#198,.F.);
#250=ORIENTED_EDGE('',*,*,#196,.F.);
#251=ORIENTED_EDGE('',*,*,#199,.T.);
#252=ORIENTED_EDGE('',*,*,#200,.F.);
#253=ORIENTED_EDGE('',*,*,#199,.F.);
#254=ORIENTED_EDGE('',*,*,#201,.T.);
#255=ORIENTED_EDGE('',*,*,#202,.T.);
#256=ORIENTED_EDGE('',*,*,#203,.T.);
#257=ORIENTED_EDGE('',*,*,#204,.T.);
#258=ORIENTED_EDGE('',*,*,#205,.T.);
#259=ORIENTED_EDGE('',*,*,#206,.T.);
#260=ORIENTED_EDGE('',*,*,#207,.T.);
#261=ORIENTED_EDGE('',*,*,#208,.T.);
#262=ORIENTED_EDGE('',*,*,#209,.T.);
#263=ORIENTED_EDGE('',*,*,#197,.F.);
#264=ORIENTED_EDGE('',*,*,#210,.F.);
#265=ORIENTED_EDGE('',*,*,#211,.F.);
#266=ORIENTED_EDGE('',*,*,#206,.F.);
#267=ORIENTED_EDGE('',*,*,#212,.T.);
#268=ORIENTED_EDGE('',*,*,#213,.F.);
#269=ORIENTED_EDGE('',*,*,#212,.F.);
#270=ORIENTED_EDGE('',*,*,#205,.F.);
#271=ORIENTED_EDGE('',*,*,#214,.T.);
#272=ORIENTED_EDGE('',*,*,#215,.F.);
#273=ORIENTED_EDGE('',*,*,#214,.F.);
#274=ORIENTED_EDGE('',*,*,#204,.F.);
#275=ORIENTED_EDGE('',*,*,#216,.T.);
#276=ORIENTED_EDGE('',*,*,#217,.F.);
#277=ORIENTED_EDGE('',*,*,#216,.F.);
#278=ORIENTED_EDGE('',*,*,#203,.F.);
#279=ORIENTED_EDGE('',*,*,#218,.T.);
#280=ORIENTED_EDGE('',*,*,#219,.F.);
#281=ORIENTED_EDGE('',*,*,#218,.F.);
#282=ORIENTED_EDGE('',*,*,#202,.F.);
#283=ORIENTED_EDGE('',*,*,#220,.T.);
#284=ORIENTED_EDGE('',*,*,#221,.F.);
#285=ORIENTED_EDGE('',*,*,#220,.F.);
#286=ORIENTED_EDGE('',*,*,#209,.F.);
#287=ORIENTED_EDGE('',*,*,#222,.T.);
#288=ORIENTED_EDGE('',*,*,#223,.F.);
#289=ORIENTED_EDGE('',*,*,#222,.F.);
#290=ORIENTED_EDGE('',*,*,#208,.F.);
#291=ORIENTED_EDGE('',*,*,#224,.T.);
#292=ORIENTED_EDGE('',*,*,#225,.F.);
#293=ORIENTED_EDGE('',*,*,#224,.F.);
#294=ORIENTED_EDGE('',*,*,#207,.F.);
#295=ORIENTED_EDGE('',*,*,#211,.T.);
#296=ORIENTED_EDGE('',*,*,#226,.T.);
#297=ORIENTED_EDGE('',*,*,#227,.T.);
#298=ORIENTED_EDGE('',*,*,#228,.T.);
#299=ORIENTED_EDGE('',*,*,#229,.T.);
#300=ORIENTED_EDGE('',*,*,#227,.F.);
#301=ORIENTED_EDGE('',*,*,#201,.F.);
#302=ORIENTED_EDGE('',*,*,#230,.T.);
#303=ORIENTED_EDGE('',*,*,#228,.F.);
#304=ORIENTED_EDGE('',*,*,#229,.F.);
#305=ORIENTED_EDGE('',*,*,#230,.F.);
#306=ORIENTED_EDGE('',*,*,#226,.F.);
#307=ORIENTED_EDGE('',*,*,#200,.T.);
#308=ORIENTED_EDGE('',*,*,#219,.T.);
#309=ORIENTED_EDGE('',*,*,#221,.T.);
#310=ORIENTED_EDGE('',*,*,#223,.T.);
#311=ORIENTED_EDGE('',*,*,#225,.T.);
#312=ORIENTED_EDGE('',*,*,#210,.T.);
#313=ORIENTED_EDGE('',*,*,#213,.T.);
#314=ORIENTED_EDGE('',*,*,#215,.T.);
#315=ORIENTED_EDGE('',*,*,#217,.T.);
#316=ORIENTED_EDGE('',*,*,#231,.T.);
#317=ORIENTED_EDGE('',*,*,#232,.T.);
#318=ORIENTED_EDGE('',*,*,#233,.T.);
#319=ORIENTED_EDGE('',*,*,#232,.F.);
#320=ORIENTED_EDGE('',*,*,#233,.F.);
#321=ORIENTED_EDGE('',*,*,#234,.T.);
#322=ORIENTED_EDGE('',*,*,#235,.F.);
#323=ORIENTED_EDGE('',*,*,#234,.F.);
#324=ORIENTED_EDGE('',*,*,#236,.T.);
#325=ORIENTED_EDGE('',*,*,#231,.F.);
#326=ORIENTED_EDGE('',*,*,#237,.T.);
#327=ORIENTED_EDGE('',*,*,#238,.T.);
#328=ORIENTED_EDGE('',*,*,#239,.T.);
#329=ORIENTED_EDGE('',*,*,#240,.T.);
#330=ORIENTED_EDGE('',*,*,#238,.F.);
#331=ORIENTED_EDGE('',*,*,#236,.F.);
#332=ORIENTED_EDGE('',*,*,#241,.T.);
#333=ORIENTED_EDGE('',*,*,#239,.F.);
#334=ORIENTED_EDGE('',*,*,#240,.F.);
#335=ORIENTED_EDGE('',*,*,#241,.F.);
#336=ORIENTED_EDGE('',*,*,#237,.F.);
#337=ORIENTED_EDGE('',*,*,#235,.T.);
#338=TOROIDAL_SURFACE('',#375,9.50000011920929,1.5);
#339=ADVANCED_FACE('',(#91),#338,.T.);
#340=ADVANCED_FACE('',(#92),#87,.F.);
#341=ADVANCED_FACE('',(#93),#31,.F.);
#342=ADVANCED_FACE('',(#94,#17,#18),#23,.T.);
#343=ADVANCED_FACE('',(#95),#24,.F.);
#344=ADVANCED_FACE('',(#96),#32,.F.);
#345=ADVANCED_FACE('',(#97),#25,.F.);
#346=ADVANCED_FACE('',(#98),#33,.F.);
#347=ADVANCED_FACE('',(#99),#26,.F.);
#348=ADVANCED_FACE('',(#100),#34,.F.);
#349=ADVANCED_FACE('',(#101),#27,.F.);
#350=ADVANCED_FACE('',(#102),#35,.F.);
#351=ADVANCED_FACE('',(#103),#88,.T.);
#352=ADVANCED_FACE('',(#104),#36,.T.);
#353=ADVANCED_FACE('',(#105,#19,#20),#28,.T.);
#354=ADVANCED_FACE('',(#106),#89,.F.);
#355=ADVANCED_FACE('',(#107),#37,.F.);
#356=ADVANCED_FACE('',(#108,#21),#29,.T.);
#357=ADVANCED_FACE('',(#109),#90,.T.);
#358=ADVANCED_FACE('',(#110),#38,.T.);
#359=ADVANCED_FACE('',(#111,#22),#30,.T.);
#360=CLOSED_SHELL('',(#339,#340,#341,#342,#343,#344,#345,#346,#347,#348,
#349,#350,#351,#352,#353));
#361=CLOSED_SHELL('',(#354,#355,#356,#357,#358,#359));
#362=DERIVED_UNIT_ELEMENT(#364,1.);
#363=DERIVED_UNIT_ELEMENT(#642,-3.);
#364=(
MASS_UNIT()
NAMED_UNIT(*)
SI_UNIT(.KILO.,.GRAM.)
);
#365=DERIVED_UNIT((#362,#363));
#366=MEASURE_REPRESENTATION_ITEM('density measure',
POSITIVE_RATIO_MEASURE(7850.),#365);
#367=PROPERTY_DEFINITION_REPRESENTATION(#372,#369);
#368=PROPERTY_DEFINITION_REPRESENTATION(#373,#370);
#369=REPRESENTATION('material name',(#371),#639);
#370=REPRESENTATION('density',(#366),#639);
#371=DESCRIPTIVE_REPRESENTATION_ITEM('Steel','Steel');
#372=PROPERTY_DEFINITION('material property','material name',#649);
#373=PROPERTY_DEFINITION('material property','density of part',#649);
#374=AXIS2_PLACEMENT_3D('',#536,#420,#421);
#375=AXIS2_PLACEMENT_3D('',#537,#422,#423);
#376=AXIS2_PLACEMENT_3D('',#539,#424,#425);
#377=AXIS2_PLACEMENT_3D('',#541,#426,#427);
#378=AXIS2_PLACEMENT_3D('',#542,#428,#429);
#379=AXIS2_PLACEMENT_3D('',#543,#430,#431);
#380=AXIS2_PLACEMENT_3D('',#545,#432,#433);
#381=AXIS2_PLACEMENT_3D('',#547,#435,#436);
#382=AXIS2_PLACEMENT_3D('',#550,#438,#439);
#383=AXIS2_PLACEMENT_3D('',#551,#440,#441);
#384=AXIS2_PLACEMENT_3D('',#553,#442,#443);
#385=AXIS2_PLACEMENT_3D('',#558,#445,#446);
#386=AXIS2_PLACEMENT_3D('',#562,#448,#449);
#387=AXIS2_PLACEMENT_3D('',#566,#451,#452);
#388=AXIS2_PLACEMENT_3D('',#569,#454,#455);
#389=AXIS2_PLACEMENT_3D('',#570,#456,#457);
#390=AXIS2_PLACEMENT_3D('',#576,#461,#462);
#391=AXIS2_PLACEMENT_3D('',#578,#463,#464);
#392=AXIS2_PLACEMENT_3D('',#580,#466,#467);
#393=AXIS2_PLACEMENT_3D('',#584,#470,#471);
#394=AXIS2_PLACEMENT_3D('',#586,#472,#473);
#395=AXIS2_PLACEMENT_3D('',#588,#475,#476);
#396=AXIS2_PLACEMENT_3D('',#592,#479,#480);
#397=AXIS2_PLACEMENT_3D('',#594,#481,#482);
#398=AXIS2_PLACEMENT_3D('',#596,#484,#485);
#399=AXIS2_PLACEMENT_3D('',#600,#488,#489);
#400=AXIS2_PLACEMENT_3D('',#601,#490,#491);
#401=AXIS2_PLACEMENT_3D('',#602,#492,#493);
#402=AXIS2_PLACEMENT_3D('',#604,#494,#495);
#403=AXIS2_PLACEMENT_3D('',#608,#497,#498);
#404=AXIS2_PLACEMENT_3D('',#609,#499,#500);
#405=AXIS2_PLACEMENT_3D('',#610,#501,#502);
#406=AXIS2_PLACEMENT_3D('',#612,#504,#505);
#407=AXIS2_PLACEMENT_3D('',#613,#506,#507);
#408=AXIS2_PLACEMENT_3D('',#615,#508,#509);
#409=AXIS2_PLACEMENT_3D('',#618,#511,#512);
#410=AXIS2_PLACEMENT_3D('',#619,#513,#514);
#411=AXIS2_PLACEMENT_3D('',#622,#516,#517);
#412=AXIS2_PLACEMENT_3D('',#623,#518,#519);
#413=AXIS2_PLACEMENT_3D('',#625,#520,#521);
#414=AXIS2_PLACEMENT_3D('',#626,#522,#523);
#415=AXIS2_PLACEMENT_3D('',#628,#524,#525);
#416=AXIS2_PLACEMENT_3D('',#632,#527,#528);
#417=AXIS2_PLACEMENT_3D('',#633,#529,#530);
#418=AXIS2_PLACEMENT_3D('',#634,#531,#532);
#419=AXIS2_PLACEMENT_3D('',#636,#534,#535);
#420=DIRECTION('axis',(0.,0.,1.));
#421=DIRECTION('refdir',(1.,0.,0.));
#422=DIRECTION('center_axis',(0.,0.,-1.));
#423=DIRECTION('ref_axis',(-1.,0.,0.));
#424=DIRECTION('center_axis',(0.,0.,1.));
#425=DIRECTION('ref_axis',(-1.,-6.12323399573677E-17,0.));
#426=DIRECTION('center_axis',(-1.22464679914735E-16,-1.,0.));
#427=DIRECTION('ref_axis',(1.,-1.22464679914735E-16,0.));
#428=DIRECTION('center_axis',(0.,0.,-1.));
#429=DIRECTION('ref_axis',(-1.,0.,0.));
#430=DIRECTION('center_axis',(0.,0.,1.));
#431=DIRECTION('ref_axis',(-1.,0.,0.));
#432=DIRECTION('center_axis',(0.,0.,1.));
#433=DIRECTION('ref_axis',(-1.,0.,0.));
#434=DIRECTION('',(-0.707106781186547,-8.65956056235493E-17,-0.707106781186547));
#435=DIRECTION('center_axis',(0.,0.,-1.));
#436=DIRECTION('ref_axis',(-1.,0.,0.));
#437=DIRECTION('',(0.,0.,-1.));
#438=DIRECTION('center_axis',(0.,0.,1.));
#439=DIRECTION('ref_axis',(-1.,0.,0.));
#440=DIRECTION('center_axis',(0.,0.,1.));
#441=DIRECTION('ref_axis',(1.,0.,0.));
#442=DIRECTION('center_axis',(0.,0.,1.));
#443=DIRECTION('ref_axis',(1.,0.,0.));
#444=DIRECTION('',(0.,-1.,0.));
#445=DIRECTION('center_axis',(0.,0.,-1.));
#446=DIRECTION('ref_axis',(0.,-1.,0.));
#447=DIRECTION('',(-1.,0.,0.));
#448=DIRECTION('center_axis',(0.,0.,-1.));
#449=DIRECTION('ref_axis',(-1.,3.70074341541719E-16,0.));
#450=DIRECTION('',(0.,1.,0.));
#451=DIRECTION('center_axis',(0.,0.,-1.));
#452=DIRECTION('ref_axis',(0.,1.,0.));
#453=DIRECTION('',(1.,1.11022295845071E-15,0.));
#454=DIRECTION('center_axis',(0.,0.,-1.));
#455=DIRECTION('ref_axis',(1.,0.,0.));
#456=DIRECTION('center_axis',(-1.,0.,0.));
#457=DIRECTION('ref_axis',(0.,1.,0.));
#458=DIRECTION('',(0.,-1.,0.));
#459=DIRECTION('',(0.,0.,-1.));
#460=DIRECTION('',(0.,0.,-1.));
#461=DIRECTION('center_axis',(0.,0.,-1.));
#462=DIRECTION('ref_axis',(-1.,3.70074341541719E-16,0.));
#463=DIRECTION('center_axis',(0.,0.,1.));
#464=DIRECTION('ref_axis',(-1.,3.70074341541719E-16,0.));
#465=DIRECTION('',(0.,0.,-1.));
#466=DIRECTION('center_axis',(0.,-1.,0.));
#467=DIRECTION('ref_axis',(-1.,0.,0.));
#468=DIRECTION('',(1.,0.,0.));
#469=DIRECTION('',(0.,0.,-1.));
#470=DIRECTION('center_axis',(0.,0.,-1.));
#471=DIRECTION('ref_axis',(0.,-1.,0.));
#472=DIRECTION('center_axis',(0.,0.,1.));
#473=DIRECTION('ref_axis',(0.,-1.,0.));
#474=DIRECTION('',(0.,0.,-1.));
#475=DIRECTION('center_axis',(1.,0.,0.));
#476=DIRECTION('ref_axis',(0.,-1.,0.));
#477=DIRECTION('',(0.,1.,0.));
#478=DIRECTION('',(0.,0.,-1.));
#479=DIRECTION('center_axis',(0.,0.,-1.));
#480=DIRECTION('ref_axis',(1.,0.,0.));
#481=DIRECTION('center_axis',(0.,0.,1.));
#482=DIRECTION('ref_axis',(1.,0.,0.));
#483=DIRECTION('',(0.,0.,-1.));
#484=DIRECTION('center_axis',(-1.11022295845071E-15,1.,0.));
#485=DIRECTION('ref_axis',(1.,1.11022295845071E-15,0.));
#486=DIRECTION('',(-1.,-1.11022295845071E-15,0.));
#487=DIRECTION('',(0.,0.,-1.));
#488=DIRECTION('center_axis',(0.,0.,-1.));
#489=DIRECTION('ref_axis',(0.,1.,0.));
#490=DIRECTION('center_axis',(0.,0.,1.));
#491=DIRECTION('ref_axis',(0.,1.,0.));
#492=DIRECTION('center_axis',(0.,0.,1.));
#493=DIRECTION('ref_axis',(-1.,0.,0.));
#494=DIRECTION('center_axis',(0.,0.,1.));
#495=DIRECTION('ref_axis',(-1.,0.,0.));
#496=DIRECTION('',(0.707106781186548,-8.65956056235494E-17,0.707106781186547));
#497=DIRECTION('center_axis',(0.,0.,-1.));
#498=DIRECTION('ref_axis',(-1.,0.,0.));
#499=DIRECTION('center_axis',(0.,0.,-1.));
#500=DIRECTION('ref_axis',(-1.,0.,0.));
#501=DIRECTION('center_axis',(0.,0.,1.));
#502=DIRECTION('ref_axis',(1.,0.,0.));
#503=DIRECTION('',(0.,0.,-1.));
#504=DIRECTION('center_axis',(0.,0.,-1.));
#505=DIRECTION('ref_axis',(-1.,0.,0.));
#506=DIRECTION('center_axis',(0.,0.,1.));
#507=DIRECTION('ref_axis',(1.,0.,0.));
#508=DIRECTION('center_axis',(0.,0.,1.));
#509=DIRECTION('ref_axis',(1.,0.,0.));
#510=DIRECTION('',(0.447213595499956,5.47678698264201E-17,-0.894427190999917));
#511=DIRECTION('center_axis',(0.,0.,-1.));
#512=DIRECTION('ref_axis',(1.,0.,0.));
#513=DIRECTION('center_axis',(0.,0.,-1.));
#514=DIRECTION('ref_axis',(1.,0.,0.));
#515=DIRECTION('',(0.,0.,-1.));
#516=DIRECTION('center_axis',(0.,0.,1.));
#517=DIRECTION('ref_axis',(1.,0.,0.));
#518=DIRECTION('center_axis',(0.,0.,1.));
#519=DIRECTION('ref_axis',(1.,0.,0.));
#520=DIRECTION('center_axis',(0.,0.,1.));
#521=DIRECTION('ref_axis',(1.,0.,0.));
#522=DIRECTION('center_axis',(0.,0.,1.));
#523=DIRECTION('ref_axis',(-1.,0.,0.));
#524=DIRECTION('center_axis',(0.,0.,1.));
#525=DIRECTION('ref_axis',(-1.,0.,0.));
#526=DIRECTION('',(0.707106781186548,-8.65956056235494E-17,0.707106781186547));
#527=DIRECTION('center_axis',(0.,0.,-1.));
#528=DIRECTION('ref_axis',(-1.,0.,0.));
#529=DIRECTION('center_axis',(0.,0.,-1.));
#530=DIRECTION('ref_axis',(-1.,0.,0.));
#531=DIRECTION('center_axis',(0.,0.,1.));
#532=DIRECTION('ref_axis',(1.,0.,0.));
#533=DIRECTION('',(0.,0.,-1.));
#534=DIRECTION('center_axis',(0.,0.,-1.));
#535=DIRECTION('ref_axis',(-1.,0.,0.));
#536=CARTESIAN_POINT('',(0.,0.,0.));
#537=CARTESIAN_POINT('Origin',(-2.00000004470348,0.,18.3786796564404));
#538=CARTESIAN_POINT('',(6.43933990272598,2.06704213070718E-15,19.4393398282202));
#539=CARTESIAN_POINT('Origin',(-2.00000004470348,5.16760532676794E-16,19.4393398282202));
#540=CARTESIAN_POINT('',(6.0000000745058,-9.7971745391681E-16,18.3786796564404));
#541=CARTESIAN_POINT('Origin',(7.50000007450581,-1.16341447378891E-15,18.3786796564404));
#542=CARTESIAN_POINT('Origin',(-2.00000004470348,0.,18.3786796564404));
#543=CARTESIAN_POINT('Origin',(-2.00000004470348,0.,19.5));
#544=CARTESIAN_POINT('',(7.00000007450581,1.10218213383155E-15,20.));
#545=CARTESIAN_POINT('Origin',(-2.00000004470348,0.,20.));
#546=CARTESIAN_POINT('',(6.50000007450581,1.04094979387418E-15,19.5));
#547=CARTESIAN_POINT('Origin',(-2.00000004470348,0.,20.));
#548=CARTESIAN_POINT('',(6.0000000745058,9.7971745391681E-16,0.));
#549=CARTESIAN_POINT('',(6.0000000745058,-9.7971745391681E-16,20.));
#550=CARTESIAN_POINT('Origin',(-2.00000004470348,0.,0.));
#551=CARTESIAN_POINT('Origin',(0.,0.,20.));
#552=CARTESIAN_POINT('',(-13.375,-1.63796509385959E-15,20.));
#553=CARTESIAN_POINT('Origin',(0.,0.,20.));
#554=CARTESIAN_POINT('',(10.0000001341105,2.25000004470348,20.));
#555=CARTESIAN_POINT('',(10.0000001341105,-2.25000004470348,20.));
#556=CARTESIAN_POINT('',(10.0000001341105,1.12500002235174,20.));
#557=CARTESIAN_POINT('',(9.25000013411045,-3.00000004470348,20.));
#558=CARTESIAN_POINT('Origin',(9.25000013411045,-2.25000004470348,20.));
#559=CARTESIAN_POINT('',(8.75000010430813,-3.00000004470348,20.));
#560=CARTESIAN_POINT('',(4.62500006705523,-3.00000004470348,20.));
#561=CARTESIAN_POINT('',(8.00000010430813,-2.25000004470348,20.));
#562=CARTESIAN_POINT('Origin',(8.75000010430813,-2.25000004470348,20.));
#563=CARTESIAN_POINT('',(8.00000010430813,2.25000004470348,20.));
#564=CARTESIAN_POINT('',(8.00000010430813,-1.12500002235174,20.));
#565=CARTESIAN_POINT('',(8.75000010430813,3.00000004470348,20.));
#566=CARTESIAN_POINT('Origin',(8.75000010430813,2.25000004470348,20.));
#567=CARTESIAN_POINT('',(9.25000013411045,3.00000004470348,20.));
#568=CARTESIAN_POINT('',(4.37500005215406,3.00000004470348,20.));
#569=CARTESIAN_POINT('Origin',(9.25000013411045,2.25000004470348,20.));
#570=CARTESIAN_POINT('Origin',(8.00000010430813,-2.25000004470348,20.));
#571=CARTESIAN_POINT('',(8.00000010430813,2.25000004470348,0.));
#572=CARTESIAN_POINT('',(8.00000010430813,-2.25000004470348,0.));
#573=CARTESIAN_POINT('',(8.00000010430813,-1.12500002235174,0.));
#574=CARTESIAN_POINT('',(8.00000010430813,2.25000004470348,20.));
#575=CARTESIAN_POINT('',(8.00000010430813,-2.25000004470348,20.));
#576=CARTESIAN_POINT('Origin',(8.75000010430813,-2.25000004470348,20.));
#577=CARTESIAN_POINT('',(8.75000010430813,-3.00000004470348,0.));
#578=CARTESIAN_POINT('Origin',(8.75000010430813,-2.25000004470348,0.));
#579=CARTESIAN_POINT('',(8.75000010430813,-3.00000004470348,20.));
#580=CARTESIAN_POINT('Origin',(9.25000013411045,-3.00000004470348,20.));
#581=CARTESIAN_POINT('',(9.25000013411045,-3.00000004470348,0.));
#582=CARTESIAN_POINT('',(4.62500006705523,-3.00000004470348,0.));
#583=CARTESIAN_POINT('',(9.25000013411045,-3.00000004470348,20.));
#584=CARTESIAN_POINT('Origin',(9.25000013411045,-2.25000004470348,20.));
#585=CARTESIAN_POINT('',(10.0000001341105,-2.25000004470348,0.));
#586=CARTESIAN_POINT('Origin',(9.25000013411045,-2.25000004470348,0.));
#587=CARTESIAN_POINT('',(10.0000001341105,-2.25000004470348,20.));
#588=CARTESIAN_POINT('Origin',(10.0000001341105,2.25000004470348,20.));
#589=CARTESIAN_POINT('',(10.0000001341105,2.25000004470348,0.));
#590=CARTESIAN_POINT('',(10.0000001341105,1.12500002235174,0.));
#591=CARTESIAN_POINT('',(10.0000001341105,2.25000004470348,20.));
#592=CARTESIAN_POINT('Origin',(9.25000013411045,2.25000004470348,20.));
#593=CARTESIAN_POINT('',(9.25000013411045,3.00000004470348,0.));
#594=CARTESIAN_POINT('Origin',(9.25000013411045,2.25000004470348,0.));
#595=CARTESIAN_POINT('',(9.25000013411045,3.00000004470348,20.));
#596=CARTESIAN_POINT('Origin',(8.75000010430813,3.00000004470348,20.));
#597=CARTESIAN_POINT('',(8.75000010430813,3.00000004470348,0.));
#598=CARTESIAN_POINT('',(4.37500005215406,3.00000004470348,0.));
#599=CARTESIAN_POINT('',(8.75000010430813,3.00000004470348,20.));
#600=CARTESIAN_POINT('Origin',(8.75000010430813,2.25000004470348,20.));
#601=CARTESIAN_POINT('Origin',(8.75000010430813,2.25000004470348,0.));
#602=CARTESIAN_POINT('Origin',(0.,0.,0.5));
#603=CARTESIAN_POINT('',(12.375,1.51550041394485E-15,0.));
#604=CARTESIAN_POINT('Origin',(0.,0.,0.));
#605=CARTESIAN_POINT('',(13.375,-1.63796509385959E-15,1.));
#606=CARTESIAN_POINT('',(12.875,-1.57673275390222E-15,0.5));
#607=CARTESIAN_POINT('',(-13.375,-1.63796509385959E-15,1.));
#608=CARTESIAN_POINT('Origin',(0.,0.,1.));
#609=CARTESIAN_POINT('Origin',(0.,0.,1.));
#610=CARTESIAN_POINT('Origin',(0.,0.,10.));
#611=CARTESIAN_POINT('',(-13.375,-1.63796509385959E-15,10.));
#612=CARTESIAN_POINT('Origin',(0.,0.,0.));
#613=CARTESIAN_POINT('Origin',(33.,0.,21.));
#614=CARTESIAN_POINT('',(21.,-1.46957615897682E-15,22.));
#615=CARTESIAN_POINT('Origin',(33.,0.,22.));
#616=CARTESIAN_POINT('',(22.,1.34711147906209E-15,20.));
#617=CARTESIAN_POINT('',(21.5,-1.40834381901946E-15,21.));
#618=CARTESIAN_POINT('Origin',(33.,0.,20.));
#619=CARTESIAN_POINT('Origin',(33.,0.,4.));
#620=CARTESIAN_POINT('',(22.,-1.34711147906209E-15,0.));
#621=CARTESIAN_POINT('',(22.,1.34711147906209E-15,4.));
#622=CARTESIAN_POINT('Origin',(33.,0.,0.));
#623=CARTESIAN_POINT('Origin',(33.,0.,22.));
#624=CARTESIAN_POINT('',(19.625,-1.63796509385959E-15,22.));
#625=CARTESIAN_POINT('Origin',(33.,0.,22.));
#626=CARTESIAN_POINT('Origin',(33.,0.,0.5));
#627=CARTESIAN_POINT('',(45.375,1.51550041394485E-15,0.));
#628=CARTESIAN_POINT('Origin',(33.,0.,0.));
#629=CARTESIAN_POINT('',(46.375,-1.63796509385959E-15,1.));
#630=CARTESIAN_POINT('',(45.875,-1.57673275390222E-15,0.5));
#631=CARTESIAN_POINT('',(19.625,-1.63796509385959E-15,1.));
#632=CARTESIAN_POINT('Origin',(33.,0.,1.));
#633=CARTESIAN_POINT('Origin',(33.,0.,1.));
#634=CARTESIAN_POINT('Origin',(33.,0.,10.));
#635=CARTESIAN_POINT('',(19.625,-1.63796509385959E-15,10.));
#636=CARTESIAN_POINT('Origin',(33.,0.,0.));
#637=UNCERTAINTY_MEASURE_WITH_UNIT(LENGTH_MEASURE(0.01),#641,
'DISTANCE_ACCURACY_VALUE',
'Maximum model space distance between geometric entities at asserted c
onnectivities');
#638=UNCERTAINTY_MEASURE_WITH_UNIT(LENGTH_MEASURE(0.01),#641,
'DISTANCE_ACCURACY_VALUE',
'Maximum model space distance between geometric entities at asserted c
onnectivities');
#639=(
GEOMETRIC_REPRESENTATION_CONTEXT(3)
GLOBAL_UNCERTAINTY_ASSIGNED_CONTEXT((#637))
GLOBAL_UNIT_ASSIGNED_CONTEXT((#641,#643,#644))
REPRESENTATION_CONTEXT('','3D')
);
#640=(
GEOMETRIC_REPRESENTATION_CONTEXT(3)
GLOBAL_UNCERTAINTY_ASSIGNED_CONTEXT((#638))
GLOBAL_UNIT_ASSIGNED_CONTEXT((#641,#643,#644))
REPRESENTATION_CONTEXT('','3D')
);
#641=(
LENGTH_UNIT()
NAMED_UNIT(*)
SI_UNIT(.MILLI.,.METRE.)
);
#642=(
LENGTH_UNIT()
NAMED_UNIT(*)
SI_UNIT($,.METRE.)
);
#643=(
NAMED_UNIT(*)
PLANE_ANGLE_UNIT()
SI_UNIT($,.RADIAN.)
);
#644=(
NAMED_UNIT(*)
SI_UNIT($,.STERADIAN.)
SOLID_ANGLE_UNIT()
);
#645=SHAPE_DEFINITION_REPRESENTATION(#646,#647);
#646=PRODUCT_DEFINITION_SHAPE('',$,#649);
#647=SHAPE_REPRESENTATION('',(#374),#639);
#648=PRODUCT_DEFINITION_CONTEXT('part definition',#653,'design');
#649=PRODUCT_DEFINITION('Drone Gate holder','Drone Gate holder v2',#650,
#648);
#650=PRODUCT_DEFINITION_FORMATION('',$,#655);
#651=PRODUCT_RELATED_PRODUCT_CATEGORY('Drone Gate holder v2',
'Drone Gate holder v2',(#655));
#652=APPLICATION_PROTOCOL_DEFINITION('international standard',
'automotive_design',2009,#653);
#653=APPLICATION_CONTEXT(
'Core Data for Automotive Mechanical Design Process');
#654=PRODUCT_CONTEXT('part definition',#653,'mechanical');
#655=PRODUCT('Drone Gate holder','Drone Gate holder v2',$,(#654));
#656=PRESENTATION_STYLE_ASSIGNMENT((#657));
#657=SURFACE_STYLE_USAGE(.BOTH.,#658);
#658=SURFACE_SIDE_STYLE('',(#659));
#659=SURFACE_STYLE_FILL_AREA(#660);
#660=FILL_AREA_STYLE('Steel - Satin',(#661));
#661=FILL_AREA_STYLE_COLOUR('Steel - Satin',#662);
#662=COLOUR_RGB('Steel - Satin',0.627450980392157,0.627450980392157,0.627450980392157);
ENDSEC;
END-ISO-10303-21;
